<?xml version="1.0" standalone="no"?><svg xmlns:xlink="http://www.w3.org/1999/xlink" xmlns="http://www.w3.org/2000/svg" viewBox="0 0 1000 583.3412660637792" preserveAspectRatio="xMaxYMax slice"><g transform="scale(1.2692368713311122)"><rect x="0" y="0" width="787.8857142857144" height="459.6" fill="#ffffff"/><rect x="0" y="0" width="65.65714285714286" height="65.65714285714286" fill="#ffffff"/><g transform="translate(65.66,0) scale(3.283) rotate(0)"><path fill-rule="evenodd" clip-rule="evenodd" d="M10 20C15.5228 20 20 15.5228 20 10C20 4.47715 15.5228 0 10 0C4.47715 0 0 4.47715 0 10C0 15.5228 4.47715 20 10 20ZM10 17C13.866 17 17 13.866 17 10C17 6.13401 13.866 3 10 3C6.13401 3 3 6.13401 3 10C3 13.866 6.13401 17 10 17Z" fill="#ffe7ed"/></g><g transform="translate(262.63,0) scale(3.283) rotate(0)"><path fill-rule="evenodd" clip-rule="evenodd" d="M10 20C15.5228 20 20 15.5228 20 10C20 4.47715 15.5228 0 10 0C4.47715 0 0 4.47715 0 10C0 15.5228 4.47715 20 10 20ZM10 17C13.866 17 17 13.866 17 10C17 6.13401 13.866 3 10 3C6.13401 3 3 6.13401 3 10C3 13.866 6.13401 17 10 17Z" fill="#3b5ce6"/></g><rect x="459.6" y="0" width="65.65714285714286" height="65.65714285714286" fill="#ffffff"/><rect x="328.2857142857143" y="65.65714285714286" width="65.65714285714286" height="65.65714285714286" fill="#ffffff"/><path d="M 459.6 65.66 A 65.66 65.66 0 0 1  525.26 131.32 L 459.6 65.66 A 65.66 65.66 0 0 0 525.26 131.32" fill="#ff5880"/><g transform="translate(656.57,65.66) scale(3.283) rotate(0)"><path fill-rule="evenodd" clip-rule="evenodd" d="M10 20C15.5228 20 20 15.5228 20 10C20 4.47715 15.5228 0 10 0C4.47715 0 0 4.47715 0 10C0 15.5228 4.47715 20 10 20ZM10 17C13.866 17 17 13.866 17 10C17 6.13401 13.866 3 10 3C6.13401 3 3 6.13401 3 10C3 13.866 6.13401 17 10 17Z" fill="#ffaabe"/></g><g transform="translate(0,131.31) scale(3.283) rotate(0)"><path fill-rule="evenodd" clip-rule="evenodd" d="M10 20C15.5228 20 20 15.5228 20 10C20 4.47715 15.5228 0 10 0C4.47715 0 0 4.47715 0 10C0 15.5228 4.47715 20 10 20ZM10 17C13.866 17 17 13.866 17 10C17 6.13401 13.866 3 10 3C6.13401 3 3 6.13401 3 10C3 13.866 6.13401 17 10 17Z" fill="#ffbaca"/></g><path d="M 65.66 131.31 A 65.66 65.66 0 0 1  131.32 196.97 L 65.66 131.31 A 65.66 65.66 0 0 0 131.32 196.97" fill="#4362e7"/><path d="M 393.94 131.31 A 65.66 65.66 0 0 1  459.6 196.97 L 393.94 131.31 A 65.66 65.66 0 0 0 459.6 196.97" fill="#1f45e2"/><rect x="459.6" y="131.31428571428572" width="65.65714285714286" height="65.65714285714286" fill="#ffffff"/><path d="M 656.57 131.31 A 65.66 65.66 0 0 1  722.23 196.97 L 656.57 131.31 A 65.66 65.66 0 0 0 722.23 196.97" fill="#8fa2f0"/><rect x="0" y="196.9714285714286" width="65.65714285714286" height="65.65714285714286" fill="#ffffff"/><path d="M 131.31 196.97 A 65.66 65.66 0 0 1  196.97 262.63 L 131.31 196.97 A 65.66 65.66 0 0 0 196.97 262.63" fill="#294de3"/><g transform="translate(196.97,196.97) scale(3.283) rotate(0)"><path fill-rule="evenodd" clip-rule="evenodd" d="M10 20C15.5228 20 20 15.5228 20 10C20 4.47715 15.5228 0 10 0C4.47715 0 0 4.47715 0 10C0 15.5228 4.47715 20 10 20ZM10 17C13.866 17 17 13.866 17 10C17 6.13401 13.866 3 10 3C6.13401 3 3 6.13401 3 10C3 13.866 6.13401 17 10 17Z" fill="#ff7798"/></g><g transform="translate(262.63,262.63) scale(3.283) rotate(0)"><path fill-rule="evenodd" clip-rule="evenodd" d="M10 20C15.5228 20 20 15.5228 20 10C20 4.47715 15.5228 0 10 0C4.47715 0 0 4.47715 0 10C0 15.5228 4.47715 20 10 20ZM10 17C13.866 17 17 13.866 17 10C17 6.13401 13.866 3 10 3C6.13401 3 3 6.13401 3 10C3 13.866 6.13401 17 10 17Z" fill="#ffadc0"/></g><path d="M 328.29 328.28999999999996 A 65.66 65.66 0 0 1  393.95000000000005 262.63 L 328.29 328.28999999999996 A 65.66 65.66 0 0 0 393.95000000000005 262.63" fill="#ffdce4"/><rect x="590.9142857142857" y="262.62857142857143" width="65.65714285714286" height="65.65714285714286" fill="#ffffff"/><g transform="translate(623.74,295.46) scale(1.6415) rotate(0)"><path fill-rule="evenodd" clip-rule="evenodd" d="M10 20C15.5228 20 20 15.5228 20 10C20 4.47715 15.5228 0 10 0C4.47715 0 0 4.47715 0 10C0 15.5228 4.47715 20 10 20ZM10 17C13.866 17 17 13.866 17 10C17 6.13401 13.866 3 10 3C6.13401 3 3 6.13401 3 10C3 13.866 6.13401 17 10 17Z" fill="#ff5980"/></g><path d="M 131.31 393.95000000000005 A 65.66 65.66 0 0 1  196.97 328.29 L 131.31 393.95000000000005 A 65.66 65.66 0 0 0 196.97 328.29" fill="#4e6ce8"/><rect x="262.62857142857143" y="328.2857142857143" width="65.65714285714286" height="65.65714285714286" fill="#ffffff"/><path d="M 295.46 361.11 A 32.83 32.83 0 0 1  328.28999999999996 393.94 L 295.46 361.11 A 32.83 32.83 0 0 0 328.28999999999996 393.94" fill="#ff9ab2"/><g transform="translate(328.29,328.29) scale(3.283) rotate(0)"><path fill-rule="evenodd" clip-rule="evenodd" d="M10 20C15.5228 20 20 15.5228 20 10C20 4.47715 15.5228 0 10 0C4.47715 0 0 4.47715 0 10C0 15.5228 4.47715 20 10 20ZM10 17C13.866 17 17 13.866 17 10C17 6.13401 13.866 3 10 3C6.13401 3 3 6.13401 3 10C3 13.866 6.13401 17 10 17Z" fill="#fff9fb"/></g><path d="M 525.26 459.6 A 65.66 65.66 0 0 1  590.92 393.94 L 525.26 459.6 A 65.66 65.66 0 0 0 590.92 393.94" fill="#7189ed"/><path d="M 722.23 393.94 A 65.66 65.66 0 0 1  787.89 459.6 L 722.23 393.94 A 65.66 65.66 0 0 0 787.89 459.6" fill="#ff3867"/></g></svg>